<?xml version="1.0" encoding="UTF-8"?>
<!DOCTYPE svg PUBLIC "-//W3C//DTD SVG 1.1//EN" "http://www.w3.org/Graphics/SVG/1.1/DTD/svg11.dtd">
<!-- Creator: CorelDRAW -->
<svg xmlns="http://www.w3.org/2000/svg" xml:space="preserve" width="53.425mm" height="60.1228mm" version="1.1" style="shape-rendering:geometricPrecision; text-rendering:geometricPrecision; image-rendering:optimizeQuality; fill-rule:evenodd; clip-rule:evenodd"
viewBox="0 0 5342.5 6012.28"
 xmlns:xlink="http://www.w3.org/1999/xlink"
 xmlns:xodm="http://www.corel.com/coreldraw/odm/2003">
 <defs>
  <style type="text/css">
   <![CDATA[
    .str0 {stroke:#37474F;stroke-width:52.92;stroke-miterlimit:10}
    .fil1 {fill:white}
    .fil0 {fill:#37474F;fill-rule:nonzero}
   ]]>
  </style>
 </defs>
 <g id="Camada_x0020_1">
  <metadata id="CorelCorpID_0Corel-Layer"/>
  <g id="_1899693039424">
   <path class="fil0" d="M2715.25 4538.12l-2075.41 0c-240.59,0 -436.56,-195.86 -436.56,-436.69l0 -2211.28 3759.57 0 0 1809.09c28.45,11.86 55.59,26.95 80.7,44.86 39.48,-20.84 82.31,-35.07 126.73,-42.15l0 -2486.7c0,-355.12 -288.95,-644.06 -643.99,-644.06l-217.93 0 0 438.02c0,132.95 -108.3,241.28 -241.5,241.28 -132.86,0 -241.15,-108.33 -241.15,-241.28l0 -438.02 -1485.33 0 0 438.02c0,132.95 -108.33,241.28 -241.27,241.28 -133.05,0 -241.38,-108.33 -241.38,-241.28l0 -438.02 -217.89 0c-355.02,0 -644.06,288.94 -644.06,644.06l0 2886.18c0,355.26 289.04,644.07 644.06,644.07l1959.23 0c16.76,-76.66 55.41,-149.24 116.18,-207.38z"/>
   <path class="fil0" d="M1099.11 1134.94l0 0c-69.47,0 -125.72,-56.26 -125.72,-125.73l0 -875.49c0,-69.47 56.25,-125.73 125.72,-125.73l0 0c69.46,0 125.71,56.26 125.71,125.73l0 875.49c0,69.47 -56.25,125.73 -125.71,125.73z"/>
   <path class="fil0" d="M3067.03 1134.94l0 0c-69.48,0 -125.74,-56.26 -125.74,-125.73l0 -875.49c0,-69.47 56.26,-125.73 125.74,-125.73l0 0c69.31,0 125.75,56.26 125.75,125.73l0 875.49c0,69.47 -56.44,125.73 -125.75,125.73z"/>
   <path class="fil0" d="M1210.36 3047.13l-582.38 0c-76.36,0 -138.15,-61.89 -138.15,-138.13l0 -490.68c0,-76.37 61.79,-138.14 138.15,-138.14l582.38 0c76.25,0 138.15,61.77 138.15,138.14l0 490.68c0,76.24 -61.9,138.13 -138.15,138.13z"/>
   <path class="fil0" d="M2374.24 3047.13l-582.46 0c-76.26,0 -138.07,-61.89 -138.07,-138.13l0 -490.68c0,-76.37 61.81,-138.14 138.07,-138.14l582.46 0c76.26,0 138.12,61.77 138.12,138.14l0 490.68c0,76.24 -61.86,138.13 -138.12,138.13z"/>
   <path class="fil0" d="M3538.16 3047.13l-582.47 0c-76.26,0 -138.12,-61.89 -138.12,-138.13l0 -490.68c0,-76.37 61.86,-138.14 138.12,-138.14l582.47 0c76.26,0 138.11,61.77 138.11,138.14l0 490.68c0,76.24 -61.85,138.13 -138.11,138.13z"/>
   <path class="fil0" d="M1210.36 4148.09l-582.38 0c-76.36,0 -138.15,-61.79 -138.15,-138.14l0 -490.68c0,-76.22 61.79,-138.13 138.15,-138.13l582.38 0c76.25,0 138.15,61.91 138.15,138.13l0 490.68c0,76.35 -61.9,138.14 -138.15,138.14z"/>
   <path class="fil0" d="M2374.24 4148.09l-582.46 0c-76.26,0 -138.07,-61.79 -138.07,-138.14l0 -490.68c0,-76.22 61.81,-138.13 138.07,-138.13l582.46 0c76.26,0 138.12,61.91 138.12,138.13l0 490.68c0,76.35 -61.86,138.14 -138.12,138.14z"/>
   <path class="fil1" d="M3962.85 3699.24l0 -1809.09 -3759.57 0 0 2211.28c0,240.83 195.97,436.69 436.56,436.69l2075.41 0 4.52 -4.31c102.26,-94.91 235.42,-125.57 362.32,-99.32 -76.05,-197.23 -152.1,-394.47 -228.15,-591.71 -35.83,-92.91 -77.23,-176.9 -96.11,-276.2 -27.5,-144.65 5.28,-277.49 112.85,-381.85 210.99,-204.7 557.58,-122.03 670.22,144.57 27.93,66.1 51.64,133.7 77.44,200.6 20.57,53.35 41.14,106.7 61.71,160.04 50.96,-16.95 105.47,-23.96 160.48,-20.06 42,2.98 83.39,13.14 122.32,29.36zm-1450.49 -179.97l0 490.68c0,76.35 -61.86,138.14 -138.12,138.14l-582.46 0c-76.26,0 -138.07,-61.79 -138.07,-138.14l0 -490.68c0,-76.22 61.81,-138.13 138.07,-138.13l582.46 0c76.26,0 138.12,61.91 138.12,138.13zm-1163.85 0l0 490.68c0,76.35 -61.9,138.14 -138.15,138.14l-582.38 0c-76.36,0 -138.15,-61.79 -138.15,-138.14l0 -490.68c0,-76.22 61.79,-138.13 138.15,-138.13l582.38 0c76.25,0 138.15,61.91 138.15,138.13zm2189.65 -472.14l-582.47 0c-76.26,0 -138.12,-61.89 -138.12,-138.13l0 -490.68c0,-76.37 61.86,-138.14 138.12,-138.14l582.47 0c76.26,0 138.11,61.77 138.11,138.14l0 490.68c0,76.24 -61.85,138.13 -138.11,138.13zm-1163.92 0l-582.46 0c-76.26,0 -138.07,-61.89 -138.07,-138.13l0 -490.68c0,-76.37 61.81,-138.14 138.07,-138.14l582.46 0c76.26,0 138.12,61.77 138.12,138.14l0 490.68c0,76.24 -61.86,138.13 -138.12,138.13zm-1163.88 0l-582.38 0c-76.36,0 -138.15,-61.89 -138.15,-138.13l0 -490.68c0,-76.37 61.79,-138.14 138.15,-138.14l582.38 0c76.25,0 138.15,61.77 138.15,138.14l0 490.68c0,76.24 -61.9,138.13 -138.15,138.13z"/>
   <path class="fil0 str0" d="M4991.94 4675.51c66.24,202.4 117.04,436.24 51.54,645.68 -66.13,211.51 -256.78,345.91 -462.81,405.41 -302.72,87.44 -611.25,-38.57 -857.43,-210.2 -248.57,-173.24 -498.05,-345.28 -747.02,-517.87 -35.53,-24.66 -79.02,-48.59 -101.42,-86.46 -72.06,-121.54 57.1,-268.73 186.95,-209.76l400.53 263.17c43.16,31.95 115.67,-13.08 80.99,-73.09 -127.27,-330.09 -254.54,-660.15 -381.81,-990.22 -46.98,-121.84 -99.58,-242.89 -141.38,-366.67 -63.63,-188.35 197.69,-285.25 274.83,-106.21 23.28,54.09 42.53,110.31 63.72,165.24 73.03,189.42 146.07,378.83 219.1,568.25 25.43,65.95 126.79,28.01 101.46,-39.12 -20.85,-55.29 -7.18,-107.48 32.14,-150.62 -0.01,-0.04 0,0 -0.01,-0.04 50.58,-45.13 110.02,-51.37 169.13,-18.8l42.4 40.25c53.13,75.78 61.54,261.58 150.11,227.43 85.57,-32.99 -35.12,-115.19 63.34,-220.95 41.8,-44.9 111.11,-50.07 169.11,-18.85l42.42 40.3c57.15,81.17 59.42,263.3 150.41,228.21 26.43,-10.19 40.7,-42.16 31.14,-70.33 -47.34,-139.32 140.96,-244.17 225.87,-118.75l236.69 614zm-79.57 -518.18c-27.4,-71.07 -48.66,-151.08 -108.11,-202.82 -105.14,-91.44 -268.39,-69.28 -347.47,40.81 -88.74,-182.64 -329,-183.22 -427.72,-33.24 -85.79,-168.94 -317.72,-183.65 -423.66,-29.78l-208.97 -541.96c-69.52,-164.54 -283.95,-221.71 -416.56,-93.05 -148.31,143.89 -39.75,333.09 20.39,489.06l384.73 997.78c-75.96,-50.62 -151.87,-101.34 -228.15,-151.38 -103.53,-67.97 -235.77,-71.8 -330.4,16 -108.92,101.1 -105.96,277.19 2.85,377.25l786.39 547.87c271.76,188.43 584.85,341.27 926.13,273.18 242.4,-48.32 482.55,-196.09 581.93,-430.25 167.59,-394.91 -67.73,-886.93 -211.38,-1259.47z"/>
   <path class="fil1" d="M5043.48 5321.19c65.5,-209.44 14.7,-443.28 -51.54,-645.68l-236.69 -614c-84.91,-125.42 -273.21,-20.57 -225.87,118.75 9.56,28.17 -4.71,60.14 -31.14,70.33 -90.99,35.09 -93.26,-147.04 -150.41,-228.21l-42.42 -40.3c-58,-31.22 -127.31,-26.05 -169.11,18.85 -98.46,105.76 22.23,187.96 -63.34,220.95 -88.57,34.15 -96.98,-151.65 -150.11,-227.43l-42.4 -40.25c-59.11,-32.57 -118.55,-26.33 -169.12,18.84 -39.32,43.14 -52.99,95.33 -32.14,150.62 25.33,67.13 -76.03,105.07 -101.46,39.12 -73.03,-189.42 -146.07,-378.83 -219.1,-568.25 -21.19,-54.93 -40.44,-111.15 -63.72,-165.24 -77.14,-179.04 -338.46,-82.14 -274.83,106.21 41.8,123.78 94.4,244.83 141.38,366.67 127.27,330.07 254.54,660.13 381.81,990.22 34.68,60.01 -37.83,105.04 -80.99,73.09l-400.53 -263.17c-129.85,-58.97 -259.01,88.22 -186.95,209.76 22.4,37.87 65.89,61.8 101.42,86.46 248.97,172.59 498.45,344.63 747.02,517.87 246.18,171.63 554.71,297.64 857.43,210.2 206.03,-59.5 396.68,-193.9 462.81,-405.41z"/>
  </g>
 </g>
</svg>
